<svg width="156" height="53" viewBox="0 0 156 53" fill="none" xmlns="http://www.w3.org/2000/svg">
<path d="M151.461 6.65893V19.0256H154.552V25.0051H151.461V36.1487C151.461 37.2359 151.653 38.0512 152.04 38.5948C152.426 39.1384 153.006 39.4102 153.779 39.4102C154.165 39.4102 156 39.4102 156 39.4102V46.4769C156 46.4769 152.619 46.4769 152.136 46.4769C150.591 46.4769 148.659 46.0692 147.307 44.3026C145.954 42.5359 145.375 40.2256 145.375 36.9641V24.8692H142.574V18.8897H145.375V6.65893H151.461ZM133.397 47.0205C130.596 47.0205 128.181 45.6616 126.539 43.2154C124.8 40.7692 124.027 37.5077 124.027 33.7025V32.7513C124.027 28.5384 124.8 25.141 126.346 22.4231C127.891 19.841 130.113 18.482 133.011 18.482C135.619 18.482 137.744 19.5692 139.193 21.7436C140.739 24.0538 141.414 27.0436 141.414 30.8487V35.3333H130.306V35.4692C130.403 36.9641 130.886 37.9154 131.562 38.8667C132.238 39.818 133.204 40.2256 134.266 40.2256C135.426 40.2256 136.295 40.0897 136.971 39.818C137.647 39.5462 138.613 39.1385 139.579 38.459L141.028 43.7589C140.159 44.7103 139.096 45.3898 137.744 46.0692C136.392 46.7487 134.846 47.0205 133.397 47.0205ZM132.914 25.0051C132.045 25.0051 131.369 25.4128 130.982 26.364C130.596 27.3154 130.306 28.5384 130.209 29.8974L130.306 30.0333H135.522V29.3538C135.522 27.8589 135.329 26.9077 134.943 26.2282C134.363 25.277 133.783 25.0051 132.914 25.0051ZM113.016 47.0205C110.214 47.0205 107.799 45.6616 106.157 43.2154C104.516 40.7692 103.646 37.5077 103.646 33.7025V32.7513C103.646 28.5384 104.419 25.141 105.964 22.4231C107.51 19.841 109.731 18.482 112.629 18.482C115.238 18.482 117.362 19.5692 118.812 21.7436C120.26 23.9179 121.033 27.0436 121.033 30.8487V35.3333H109.925V35.4692C110.021 36.9641 110.504 37.9154 111.181 38.8667C111.856 39.818 112.822 40.2256 113.885 40.2256C115.044 40.2256 115.913 40.0897 116.59 39.818C117.266 39.5462 118.232 39.1385 119.198 38.459L120.647 43.7589C119.777 44.7103 118.715 45.3898 117.362 46.0692C116.107 46.7487 114.561 47.0205 113.016 47.0205ZM112.629 25.0051C111.76 25.0051 111.084 25.4128 110.698 26.364C110.311 27.3154 110.021 28.5384 109.925 29.8974L110.021 30.0333H115.238V29.3538C115.238 27.8589 115.044 26.9077 114.658 26.2282C114.078 25.277 113.499 25.0051 112.629 25.0051ZM94.5664 34.7897L96.6913 18.7539H102.197L97.7537 46.341H92.6342L89.4469 31.6642H89.3499L86.1626 46.341H81.0432L76.5031 18.8897H82.1056L84.2305 35.0615H84.3268L87.4184 18.8897H91.2821L94.5664 34.7897ZM68.9684 38.5948C68.9684 37.9153 68.6787 37.2359 68.0993 36.6923C67.5199 36.1487 66.5538 35.6051 65.1047 35.1974C62.8831 34.518 61.1444 33.5667 59.9852 32.3436C58.8261 30.9847 58.2466 29.2179 58.2466 26.9077C58.2466 24.4616 59.0193 22.4231 60.3716 20.6564C61.8205 18.8897 63.7526 18.2102 66.1671 18.2102C68.6787 18.2102 70.8036 19.0256 72.2527 20.6564C73.7982 22.2872 74.4746 24.3257 74.3776 27.0435V27.1795H68.5824C68.5824 26.0923 68.389 25.2769 68.0023 24.7333C67.6163 24.1897 66.9399 23.9179 66.1671 23.9179C65.4914 23.9179 65.0084 24.1897 64.5253 24.7333C64.0423 25.2769 63.8489 25.8206 63.8489 26.6359C63.8489 27.4513 64.1386 27.9949 64.6217 28.5384C65.1047 29.082 66.1671 29.4898 67.6163 29.8974C69.9345 30.5769 71.7696 31.5282 72.8321 32.7513C73.9915 34.1103 74.5709 35.8769 74.5709 38.3231C74.5709 40.7692 73.7982 42.8077 72.2527 44.4384C70.7072 46.0692 68.6787 46.8846 66.1671 46.8846C63.5592 46.8846 61.4342 45.9333 59.8886 44.0308C58.3432 42.1282 57.667 40.0897 57.7636 37.6436V37.5077H63.2695C63.2695 38.8667 63.5592 39.818 64.1386 40.2256C64.7187 40.6333 65.4914 41.177 66.3605 41.177C67.2296 41.177 67.8096 40.9051 68.1957 40.4975C68.775 40.0897 68.9684 39.4102 68.9684 38.5948ZM42.6948 18.7539L42.888 22.559C43.5641 21.2 44.3369 20.1129 45.2063 19.4334C46.1722 18.618 47.1381 18.2102 48.2973 18.2102C50.1326 18.2102 51.6781 19.1615 52.7407 20.7924C53.8032 22.4231 54.3827 25.2769 54.3827 29.082V46.341H48.4905V29.2179C48.4905 27.5872 48.2973 26.6359 47.8143 25.9564C47.3314 25.2769 46.6552 25.0051 45.7858 25.0051C45.2063 25.0051 44.7233 25.1411 44.2403 25.4128C43.7574 25.6846 43.371 26.0923 43.0812 26.6359V46.4769H37.0923V18.8897H42.6948V18.7539ZM33.4218 13.5898H27.3363V6.65893H33.4218V13.5898ZM33.4218 46.4769H27.3363V18.8897H33.4218V46.4769ZM14.0063 46.4769V24.7333H11.205V18.7539H14.0063V15.9C14.0063 12.7744 14.6824 10.3282 15.9381 8.56158C17.2904 6.79494 19.3189 6.38719 20.7679 6.38719C21.2508 6.38719 24.6316 6.38719 24.6316 6.38719V13.3179C24.6316 13.3179 22.7963 13.3179 22.41 13.3179C21.6372 13.3179 21.0576 13.5898 20.6713 14.1334C20.2849 14.6769 20.0917 15.4923 20.0917 16.5795V18.618H23.8589V24.5974H20.0917V46.2051H14.0063V46.4769ZM2.41487 8.96924C2.41487 0.679494 5.50588 0 10.722 0V6.52311C8.30713 6.52311 7.34118 7.06668 7.34118 9.10516V19.841C7.34118 22.2872 7.43779 24.8692 5.98885 26.5C7.43779 28.1308 7.34118 30.5769 7.34118 33.159V43.8948C7.34118 46.0692 8.30713 46.4769 10.722 46.4769V53C5.50588 53 2.41487 52.3205 2.41487 44.0308V33.159C2.41487 31.3923 2.41487 29.4898 0 29.4898V26.6359V23.7821C2.41487 23.7821 2.41487 21.7436 2.41487 20.1129V8.96924Z" fill="#063255"/>
</svg>
